<?xml version="1.0" encoding="UTF-8"?>
<svg width="24px" height="24px" viewBox="0 0 24 24" version="1.1" xmlns="http://www.w3.org/2000/svg" xmlns:xlink="http://www.w3.org/1999/xlink">
    <!-- Generator: Sketch 51.2 (57519) - http://www.bohemiancoding.com/sketch -->
    <title>Facebook</title>
    <desc>Created with Sketch.</desc>
    <defs></defs>
    <g id="Furnas_visa_Landing" stroke="none" stroke-width="1" fill="none" fill-rule="evenodd">
        <g id="Landing_Desktop_14" transform="translate(-1046.000000, -4776.000000)" fill-rule="nonzero" stroke="#FFFFFF">
            <g id="Facebook" transform="translate(1046.000000, 4776.000000)">
                <rect id="Rectangle-12" x="0.5" y="0.5" width="23" height="23" rx="5"></rect>
                <g id="facebook-logo" transform="translate(9.000000, 6.000000)" stroke-width="0.4">
                    <path d="M6.6155283,0.0024742268 L4.96920755,0 C3.11962264,0 1.92433962,1.14865979 1.92433962,2.92651546 L1.92433962,4.27583505 L0.269037736,4.27583505 C0.126,4.27583505 0.0101698113,4.38445361 0.0101698113,4.51843299 L0.0101698113,6.4734433 C0.0101698113,6.60742268 0.126132075,6.71591753 0.269037736,6.71591753 L1.92433962,6.71591753 L1.92433962,11.6490309 C1.92433962,11.7830103 2.04016981,11.8915052 2.18320755,11.8915052 L4.34290566,11.8915052 C4.4859434,11.8915052 4.60177358,11.7828866 4.60177358,11.6490309 L4.60177358,6.71591753 L6.53720755,6.71591753 C6.68024528,6.71591753 6.79607547,6.60742268 6.79607547,6.4734433 L6.79686792,4.51843299 C6.79686792,4.45410309 6.7695283,4.39249485 6.7210566,4.34696907 C6.67258491,4.3014433 6.60654717,4.27583505 6.53786792,4.27583505 L4.60177358,4.27583505 L4.60177358,3.132 C4.60177358,2.5822268 4.74164151,2.30313402 5.50622642,2.30313402 L6.61526415,2.30276289 C6.75816981,2.30276289 6.874,2.19414433 6.874,2.06028866 L6.874,0.244948454 C6.874,0.111216495 6.75830189,0.00272164948 6.6155283,0.0024742268 Z" id="Shape"></path>
                </g>
            </g>
        </g>
    </g>
</svg>