<?xml version="1.0" encoding="UTF-8"?>
<svg width="24px" height="24px" viewBox="0 0 24 24" version="1.1" xmlns="http://www.w3.org/2000/svg" xmlns:xlink="http://www.w3.org/1999/xlink">
    <!-- Generator: Sketch 51.2 (57519) - http://www.bohemiancoding.com/sketch -->
    <title>Instagram</title>
    <desc>Created with Sketch.</desc>
    <defs></defs>
    <g id="Welcome" stroke="none" stroke-width="1" fill="none" fill-rule="evenodd">
        <g id="Desktop-HD" transform="translate(-971.000000, -6821.000000)" fill-rule="nonzero">
            <g id="Instagram" transform="translate(971.000000, 6821.000000)">
                <rect id="Rectangle-12" stroke="#FFFFFF" x="0.5" y="0.5" width="23" height="23" rx="5"></rect>
                <g id="instagram-logo" transform="translate(7.000000, 7.000000)" fill="#FFFFFF">
                    <g id="Shape">
                        <path d="M9.06252941,7.20041176 C9.06252941,8.22717647 8.22717647,9.06247059 7.20041176,9.06247059 L2.74435294,9.06247059 C1.71764706,9.06252941 0.882352941,8.22717647 0.882352941,7.20041176 L0.882352941,2.74441176 C0.882352941,1.71770588 1.71764706,0.882352941 2.74435294,0.882352941 L7.20035294,0.882352941 C8.22711765,0.882352941 9.06247059,1.71770588 9.06247059,2.74441176 L9.06247059,7.20041176 L9.06252941,7.20041176 Z M7.64241176,1.66182353 C7.47241176,1.66182353 7.30541176,1.73064706 7.18535294,1.85123529 C7.06470588,1.97123529 6.99535294,2.13829412 6.99535294,2.30888235 C6.99535294,2.47894118 7.06476471,2.64594118 7.18535294,2.76652941 C7.30535294,2.88652941 7.47241176,2.95594118 7.64241176,2.95594118 C7.813,2.95594118 7.97947059,2.88652941 8.10005882,2.76652941 C8.22064706,2.64594118 8.28947059,2.47888235 8.28947059,2.30888235 C8.28947059,2.13829412 8.22064706,1.97123529 8.10005882,1.85123529 C7.98005882,1.73064706 7.813,1.66182353 7.64241176,1.66182353 Z M4.97241176,2.73629412 C3.73933718,2.73629412 2.73618396,3.73944734 2.73618396,4.97252192 C2.73618396,6.20554517 3.73933718,7.20864706 4.97241176,7.20864706 C6.20548635,7.20864706 7.20863957,6.20554517 7.20863957,4.97252192 C7.20863957,3.73944734 6.20548635,2.73629412 4.97241176,2.73629412 Z" id="Combined-Shape"></path>
                    </g>
                </g>
            </g>
        </g>
    </g>
</svg>