<?xml version="1.0" encoding="UTF-8"?>
<svg width="24px" height="24px" viewBox="0 0 24 24" version="1.1" xmlns="http://www.w3.org/2000/svg" xmlns:xlink="http://www.w3.org/1999/xlink">
    <!-- Generator: Sketch 51.2 (57519) - http://www.bohemiancoding.com/sketch -->
    <title>Instagram</title>
    <desc>Created with Sketch.</desc>
    <defs></defs>
    <g id="Furnas_visa_Landing" stroke="none" stroke-width="1" fill="none" fill-rule="evenodd">
        <g id="Landing_Desktop_14" transform="translate(-1126.000000, -4776.000000)" fill-rule="nonzero" stroke="#FFFFFF">
            <g id="Instagram" transform="translate(1126.000000, 4776.000000)">
                <rect id="Rectangle-12" x="0.5" y="0.5" width="23" height="23" rx="5"></rect>
                <g id="instagram-logo" transform="translate(7.000000, 7.000000)">
                    <path d="M7.20035294,0 C8.71370588,0 9.94488235,1.23117647 9.94482353,2.74441176 L9.94482353,7.20041176 C9.94482353,8.71364706 8.71370588,9.94482353 7.20035294,9.94482353 L2.74435294,9.94482353 C1.23111765,9.94482353 0,8.71370588 0,7.20041176 L0,2.74441176 C0,1.23117647 1.23111765,0 2.74435294,0 L7.20035294,0 Z" id="Shape" stroke-width="0.4"></path>
                    <path d="M4.97241176,2.41 C3.55941176,2.41 2.40988235,3.55952941 2.40988235,4.97252941 C2.40988235,6.38547059 3.55941176,7.53494118 4.97241176,7.53494118 C6.38541176,7.53494118 7.53494118,6.38547059 7.53494118,4.97252941 C7.53494118,3.55952941 6.38541176,2.41 4.97241176,2.41 Z" id="Shape" stroke-width="0.4"></path>
                    <path d="M7.64241176,1.66182353 C7.47241176,1.66182353 7.30541176,1.73064706 7.18535294,1.85123529 C7.06470588,1.97123529 6.99535294,2.13829412 6.99535294,2.30888235 C6.99535294,2.47894118 7.06476471,2.64594118 7.18535294,2.76652941 C7.30535294,2.88652941 7.47241176,2.95594118 7.64241176,2.95594118 C7.813,2.95594118 7.97947059,2.88652941 8.10005882,2.76652941 C8.22064706,2.64594118 8.28947059,2.47888235 8.28947059,2.30888235 C8.28947059,2.13829412 8.22064706,1.97123529 8.10005882,1.85123529 C7.98005882,1.73064706 7.813,1.66182353 7.64241176,1.66182353 Z" id="Shape" stroke-width="0.2"></path>
                </g>
            </g>
        </g>
    </g>
</svg>