<?xml version="1.0" encoding="UTF-8"?>
<svg width="24px" height="24px" viewBox="0 0 24 24" version="1.1" xmlns="http://www.w3.org/2000/svg" xmlns:xlink="http://www.w3.org/1999/xlink">
    <!-- Generator: Sketch 51.2 (57519) - http://www.bohemiancoding.com/sketch -->
    <title>Media</title>
    <desc>Created with Sketch.</desc>
    <defs></defs>
    <g id="Furnas_visa_Landing" stroke="none" stroke-width="1" fill="none" fill-rule="evenodd">
        <g id="Landing_Desktop_14" transform="translate(-1166.000000, -4776.000000)" fill-rule="nonzero">
            <g id="Media" transform="translate(1166.000000, 4776.000000)">
                <rect id="Rectangle-12" stroke="#FFFFFF" x="0.5" y="0.5" width="23" height="23" rx="5"></rect>
                <g id="medium" transform="translate(6.000000, 7.000000)" fill="#FFFFFF">
                    <path d="M11.8927719,1.98265265 L8.16785965,0.0449977876 C8.07953216,-0.000924778761 7.97223392,0.0294225664 7.91840936,0.115524336 L5.40154386,4.14403097 L4.10533333,2.05376327 C4.08671345,2.02370796 4.05983626,1.99866593 4.02909942,1.98265265 L0.304187135,0.0449977876 C0.177356725,-0.0209778761 0.0233918129,0.0783141593 0.0233918129,0.225548673 L0.0233918129,2.61397354 C0.0233918129,2.72545805 0.11019883,2.64940627 0.217380117,2.64940627 C0.324538012,2.64940627 0.411391813,2.72548239 0.411391813,2.61397354 L0.411415205,0.552117257 L3.74830409,2.28792699 L3.74830409,10.4483695 L0.411391813,8.71258407 L0.411391813,2.61397354 C0.411391813,2.50248903 0.324561404,2.64940627 0.217380117,2.64940627 C0.110222222,2.64940627 0.0233684211,2.50246469 0.0233684211,2.61397354 L0.0233684211,8.83733186 C0.0233684211,8.91379646 0.0648888889,8.98366593 0.130619883,9.01785841 L3.85553216,10.9555133 C3.98247953,11.0215619 4.13630409,10.9220509 4.13630409,10.7749867 L4.13630409,7.01096681 L11.7192281,10.9555133 C11.8461754,11.0215619 12,10.9220509 12,10.7749867 L12,2.16320354 C11.9963977,2.08204204 11.9552982,2.01463053 11.8927719,1.98265265 Z M4.13630409,6.55962611 L4.13630409,2.84834292 L7.5337076,8.32692699 L4.13630409,6.55962611 Z M11.612,10.4484181 L8.3525848,8.75288496 L11.0775299,3.78792088 C11.1313077,3.69152487 11.0099181,3.80695349 10.9172632,3.75098004 C10.8246316,3.69505526 10.8064643,3.58147174 10.7526398,3.67789209 L8.07237427,8.45096903 L5.63204678,4.51571903 L8.14930994,0.486676991 L11.5345029,2.24762611 L10.7526398,3.67789209 C10.698862,3.77428811 10.8246082,3.69500659 10.9172632,3.75098004 C11.009848,3.80688048 11.023682,3.88434124 11.0775299,3.78792088 L11.612,2.91276106 L11.612,10.4484181 Z" id="Shape"></path>
                </g>
            </g>
        </g>
    </g>
</svg>