<?xml version="1.0" encoding="UTF-8"?>
<svg width="24px" height="24px" viewBox="0 0 24 24" version="1.1" xmlns="http://www.w3.org/2000/svg" xmlns:xlink="http://www.w3.org/1999/xlink">
    <!-- Generator: Sketch 51.2 (57519) - http://www.bohemiancoding.com/sketch -->
    <title>Vk</title>
    <desc>Created with Sketch.</desc>
    <defs></defs>
    <g id="Welcome" stroke="none" stroke-width="1" fill="none" fill-rule="evenodd">
        <g id="Desktop-HD" transform="translate(-931.000000, -6821.000000)" fill-rule="nonzero" stroke="#FFFFFF">
            <g id="Vk" transform="translate(931.000000, 6821.000000)">
                <rect id="Rectangle-12" x="0.5" y="0.5" width="23" height="23" rx="5"></rect>
                <g id="vk-social-network-logo" transform="translate(6.000000, 9.000000)" fill="#FFFFFF" stroke-width="0.4">
                    <path d="M11.9363584,6.23966744 C11.9218278,6.20806604 11.9082819,6.18185299 11.8956989,6.16085164 C11.6874996,5.78245191 11.2896363,5.31799302 10.7023497,4.76734246 L10.6899418,4.75473282 L10.6837269,4.74854946 L10.6774463,4.74221151 L10.6711439,4.74221151 C10.4046033,4.4858007 10.2358161,4.31339529 10.1651325,4.22512778 C10.0358012,4.05698447 10.0068275,3.88678741 10.0775111,3.71433783 C10.1274492,3.58404554 10.3150343,3.30888589 10.6398287,2.88848345 C10.8106729,2.66568364 10.9459784,2.48711695 11.0458983,2.35258464 C11.7665427,1.38577167 12.0789729,0.767965373 11.9831233,0.498922833 L11.9458996,0.436051281 C11.9208868,0.398200267 11.8563305,0.363573434 11.7523184,0.331994116 C11.6480656,0.300481048 11.5148172,0.295269356 11.3523324,0.316270707 L9.55298633,0.328814101 C9.52383756,0.318390717 9.4822152,0.319362389 9.42798797,0.331994116 C9.3738264,0.344625843 9.34673467,0.35096379 9.34673467,0.35096379 L9.31541943,0.366753449 L9.29055981,0.385723123 C9.26972675,0.398266517 9.24681476,0.420327873 9.22180196,0.451863024 C9.19692046,0.483287758 9.17610928,0.520167101 9.15947785,0.562191886 C8.96357706,1.07079557 8.74084714,1.54366826 8.49087231,1.98078785 C8.33674706,2.24143869 8.19520481,2.46733019 8.06593917,2.65859485 C7.93684861,2.84979327 7.82854733,2.99066353 7.74114477,3.08096271 C7.65361091,3.17135023 7.57461159,3.24376182 7.5036654,3.2984625 C7.43282862,3.35318527 7.37875457,3.37630663 7.34131196,3.36784867 C7.30378182,3.35939071 7.26844002,3.35099901 7.2349802,3.3426073 C7.17670453,3.30475628 7.12983015,3.25327979 7.09448835,3.18813364 C7.05899337,3.1229875 7.03509663,3.04099169 7.02260117,2.94221246 C7.01017136,2.84336699 7.00281851,2.75834575 7.0007177,2.68686165 C6.99877007,2.6154659 6.99966729,2.51447833 7.0038908,2.38418604 C7.00822373,2.2538275 7.01017136,2.16562624 7.01017136,2.11938352 C7.01017136,1.95963192 7.01325693,1.78625484 7.01944995,1.59920811 C7.02575239,1.41216138 7.03085123,1.26395942 7.03511851,1.15477889 C7.0393639,1.04548795 7.04133341,0.929859065 7.04133341,0.807958481 C7.04133341,0.686057897 7.03398057,0.590458688 7.01944995,0.521072522 C7.00509439,0.45177469 6.98305774,0.384508534 6.95401838,0.319296138 C6.92480396,0.254149993 6.88204367,0.203755584 6.82593446,0.167980413 C6.76971583,0.132249408 6.69982004,0.103894272 6.61664099,0.0828266714 C6.3958587,0.0324101797 6.11472182,0.00513713226 5.77309903,0.000897111929 C4.99840245,-0.00749459497 4.50061925,0.042988147 4.27985885,0.152279088 C4.19239064,0.198455559 4.11323814,0.261547945 4.04246701,0.341357494 C3.96747237,0.433865021 3.95701208,0.484347763 4.01115177,0.492651136 C4.26110472,0.530435901 4.43805442,0.620823417 4.54219784,0.763725352 L4.57972798,0.839449465 C4.60892053,0.894083894 4.6380693,0.990809358 4.66723996,1.12949336 C4.69636686,1.26817735 4.71516475,1.42159101 4.7234367,1.58964598 C4.744226,1.89653953 4.744226,2.15924413 4.7234367,2.37778184 C4.70258176,2.59640789 4.68288664,2.76660495 4.66408874,2.88850554 C4.64529085,3.01040612 4.61719248,3.10918535 4.57972798,3.18482113 C4.54219784,3.26047899 4.5172288,3.30672171 4.50471146,3.32350512 C4.492216,3.34028854 4.48179947,3.3508665 4.47352752,3.35501819 C4.41938783,3.37595329 4.36308167,3.38661959 4.304806,3.38661959 C4.2464428,3.38661959 4.17567167,3.35716029 4.0923832,3.29828584 C4.00911661,3.23941139 3.9226988,3.15854183 3.83312978,3.05554467 C3.74356075,2.95252543 3.64254667,2.80856349 3.53004377,2.62363677 C3.41762841,2.43871005 3.30098953,2.22015025 3.1801928,1.96795738 L3.08025101,1.78506233 C3.01777372,1.66740177 2.9324282,1.49607845 2.82412693,1.27124695 C2.71576,1.04632712 2.61997607,0.828761081 2.53670949,0.61859299 C2.50342474,0.530325483 2.45342102,0.463125578 2.38678586,0.416882856 L2.35551439,0.397913182 C2.3347251,0.381129768 2.30135281,0.363308433 2.2555726,0.344316675 C2.20972674,0.325347001 2.16188948,0.311743602 2.11186388,0.303373979 L0.399942223,0.315917372 C0.225005797,0.315917372 0.106309877,0.355910481 0.0438106988,0.43578628 L0.0187978972,0.473571045 C0.00630243819,0.494616562 0,0.528227557 0,0.574492362 C0,0.620735083 0.012495459,0.677489522 0.0375082606,0.744689428 C0.287417441,1.33740894 0.559188205,1.90903876 0.852820551,2.45966723 C1.1464529,3.01029571 1.40161411,3.45384158 1.618151,3.78990736 C1.83473167,4.12621606 2.05549207,4.44362133 2.28043222,4.74196859 C2.50537236,5.04042627 2.65426747,5.23169094 2.72711752,5.31571842 C2.80005512,5.39990049 2.85734603,5.4628383 2.89899027,5.50486308 L3.05521633,5.65615672 C3.15518,5.75705596 3.30197429,5.87789654 3.49566485,6.01867846 C3.68939917,6.15954872 3.90387902,6.29823272 4.13921381,6.43495129 C4.37459237,6.57144903 4.64842018,6.68283789 4.96085042,6.76898539 C5.2732369,6.85522122 5.57728578,6.88982597 5.87304082,6.87313089 L6.59156254,6.87313089 C6.73728454,6.86043291 6.84768662,6.81419019 6.92272503,6.73438064 L6.94758465,6.70277924 C6.96430361,6.67769245 6.97995029,6.63871518 6.99439338,6.58626702 C7.00901153,6.53373051 7.01627685,6.47584982 7.01627685,6.41288993 C7.01200957,6.23218115 7.02564297,6.06931579 7.05680502,5.92431593 C7.0879452,5.77936023 7.12344018,5.67006929 7.16313679,5.59646519 C7.20281151,5.52292733 7.24758508,5.46087287 7.29741373,5.4105668 C7.3473518,5.3601503 7.38293432,5.32960891 7.40381114,5.31909719 C7.42455667,5.30851922 7.44112245,5.30134211 7.45361791,5.29703583 C7.55358158,5.26342484 7.6712271,5.29597583 7.80672952,5.39484339 C7.94212252,5.49362261 8.06911227,5.61558945 8.18789573,5.76054514 C8.30661353,5.90563334 8.44924996,6.06841037 8.6158269,6.24911915 C8.78251326,6.42989418 8.92825715,6.56427191 9.05316797,6.65267192 L9.17807879,6.72832978 C9.26149857,6.77881252 9.36979984,6.82505524 9.50311391,6.86708003 C9.63618727,6.90908273 9.75278238,6.91959445 9.85289923,6.8985931 L11.4522961,6.87341798 C11.6104917,6.87341798 11.7335862,6.8469841 11.8209012,6.79453593 C11.9083913,6.74199943 11.9603645,6.68411873 11.9771273,6.62115885 C11.9938462,6.55813271 11.9947435,6.48662654 11.9803004,6.40668449 C11.9654853,6.32694119 11.950889,6.2711805 11.9363584,6.23966744 Z" id="Shape"></path>
                </g>
            </g>
        </g>
    </g>
</svg>