<svg xmlns="http://www.w3.org/2000/svg" viewBox="0 0 732.82 1530.66"><defs><style>.cls-1{fill:#f2445e;}.cls-2{fill:#042087;}.cls-3{fill:#fcd6be;}</style></defs><title>Ресурс 3</title><g id="Слой_2" data-name="Слой 2"><g id="Fan"><path class="cls-1" d="M562.25,136.13C509.71-4.8,512.26,0,512.26,0s-90,51.59-86.51,130.14c3.19,72.49,53.95,106,88.13,124.38Z"/></g><g id="Fan_colors"><path class="cls-2" d="M557.44,129.53,490.63,15.28S465.17,33.8,450,56.05Z"/><path class="cls-2" d="M556.2,131.93,426.27,106.75s-2.88,31.36,3.83,57.43Z"/><path class="cls-2" d="M563.2,132.52l-105.43,80s21.44,23.06,45.34,35.45Z"/></g><g id="Hand_1"><path class="cls-3" d="M338.32,539.57l-13.66,44.64c-45.87,35.17-121.4,114.68-121.4,114.68C215.58,718.76,275.12,842,275.12,842l-9.48,30c-1.83-2.14-49.21-72-73.66-118.63-23.58-45-24.83-65.79-24.83-65.79C282,535.23,312.57,532.48,338.32,539.57"/></g><g id="Hand_2"><path class="cls-3" d="M530.07,440.3s47.32-95.77,45.68-109.1C568.93,275.58,571,160.93,571,160.93s-7,2.37-16.47-12.25,4.16-50,26.81-37.54,10.52,43.36,10.52,43.36l15.94,200.61S596.09,382.26,542.66,527Z"/></g><g id="Hair_1"><path class="cls-2" d="M369.27,331.12c-18.32.3-50.52,11.55-49.16,32.16s19.62,30.29,19.62,41.89-1.22,19.54-21.06,36.63-10.07,35.41,0,45.79,12.21,20.46,8.24,23.81-9.51,4.62-16.63,2.68-15,3.56-12.49,13.21c1.53,5.83,8,14.67,34,16.81s53.4,9.2,63.82-3.27C429.92,499.8,369.27,331.12,369.27,331.12Z"/></g><g id="Neck"><path class="cls-3" d="M362.53,545.71c15.75,0,25.23-12.64,23.33-50.37l-1.49-20.79,70,14.66v97.52l-67.41,76.93L336,656.2l-4.89-60L345.4,552Z"/></g><g id="Dress"><path class="cls-1" d="M253.72,1149.78c18.82-58.12,4.66-221.75,4.66-254s28.85-89.91,33.55-119.77-30.53-69.11-27.85-101.78S335,544.41,335,544.41l27.55,1.3C331.88,625.19,349,642.78,349,642.78c31.19,5.13,84.45-82.65,84.45-82.65l86.66,53.93c-56.74,90.67-103.73,108.21-99.52,181.54,2.85,49.82,28.93,61.2,30.62,116,1.68,54.23-34.82,147.65-40.58,183.51-6.51,40.56-11.11,120.57,30.13,159,20.84,19.41,50.52,28.09,111.74,22s94.57-80,95.79-122.45-9.55-52.09-22.28-61.79-41.26-17.28-41.26-17.28,101.75-13.6,140.78,124.09c30.58,107.88-44.42,161-44.42,161s-8.26-30.53-16.13-25.56c-12.42,7.84,24,166-169.63,169.78,0,0-14.55-25.3-18.91-24.42s-24.13,57.72-118.91,50.61-120.85-41.46-130.92-48,7.41,49.8-76.49,30-101.44-34.32-113.26-91.91c0,0-1.14-8.38-7.92-3.38s-7.42,20.5-16-10.81-22.93-103.1-2.41-138c0,0,95.7,56.58,157.71,10.7S241.81,1186.55,253.72,1149.78Z"/></g><g id="Слой_13" data-name="Слой 13"><path class="cls-3" d="M374.81,355.29c-17.4,6.8-20.91,36.65-19.5,62.33-.8,4.41-10.25,19.84-15.91,28.72,0,0,7.75,8.82,11.87,11.53,3.64,2.4,5.14,26.46,6.93,31.22,3.62,9.62,15.61,8.91,57.2-4.84,58.18-19.24,40.91-61.32,40.91-61.32s-31.54-64.5-56.62-66.68S374.81,355.29,374.81,355.29Z"/></g><g id="Hair_new"><path class="cls-2" d="M404.57,434.93c0,11.67,31.34,22.63,13.85,33.69-34.65,21.92-23.51,37.68-13.63,49.46,12.66,15.12,7,35.06-5.41,37.5s-34.06,2.35-33.24,23.65c1.47,38.37,60.63,52.22,80.72,32.22s35.84-8.86,48.53,5.63,41,16.08,52.32,7c28.5-22.87-1.46-30.44-1.88-44.15-.44-14,25.69-12,23.7-35.82-2.31-27.64-25.39-19.34-28-39.92-1.35-10.78,5.75-14.49,18.31-31.8,9.17-12.65,6-36.11-10.33-49.06-17-13.51-21.23-8.24-24-24.38-2.08-12.09,8.53-19.64-.22-45.63-9-26.73-32.85-24-51.2-31.27-10.83-4.28-19.27-29.24-39.91-36-23.22-7.57-28.45,13.31-37.74,18.19-6.88,3.61-37.06-2.46-43.71,30.15-3.63,17.82,9.94,46.58,32.16,51.08,22,4.44,26.46,11.34,29.76,23C416.5,414.94,404.57,429.59,404.57,434.93Z"/></g><g id="Flower"><path class="cls-1" d="M451.86,401.29c10.09,4.33,11.19,11,12.87,15.87s-.68,22.95-17,23.14S420,434,416.4,425.56c-3.73-8.78,3.92-20.72,11.57-25.2C435.07,396.2,445.33,398.5,451.86,401.29Z"/><path class="cls-1" d="M453.64,391.94c8.27-3.3,17.87-14.09,32.12-6.63s4.16,27.35-.77,33.88c-4.56,6.07-19.8,11.09-25.75,5.05C451.34,416.23,453.64,391.94,453.64,391.94Z"/><path class="cls-1" d="M442.7,386.25c-1.12-9.52-15.12-24.27-31.35-15.49s-8.4,24.44-3.74,29.86,19.6,10.63,29.86,1.67S442.7,386.25,442.7,386.25Z"/><path class="cls-1" d="M463.43,396.91c15.15-5.8,24.61-28.86,16.16-40.82-7.52-10.66-30.74-17.28-42.93-9.15-13.73,9.15-15,29.38.33,45.51C446.25,402.2,450.43,401.88,463.43,396.91Z"/><path class="cls-1" d="M463.12,385.55c-3.72-10.27-20.8-11.22-26.82-4.11s-4.15,21.49,7.39,24.64c9.8,2.68,15.39-.79,18.16-4.25C465.2,397.64,464.91,390.46,463.12,385.55Z"/></g></g></svg>