<svg xmlns="http://www.w3.org/2000/svg" viewBox="0 0 732.82 1530.66"><defs><style>.cls-1{fill:#f2445e;}.cls-2{fill:#042087;}.cls-3{fill:#fcd6be;}</style></defs><title>Flamenko_color</title><g id="Fan"><path class="cls-1" d="M319.64,330.54c52.53-140.92,50-136.1,50-136.1s90,51.58,86.51,130.14c-3.19,72.49-53.94,106-88.13,124.38Z" transform="translate(-149.07 -194.42)"/></g><g id="Fan_colors"><path class="cls-2" d="M324.44,323.94l66.81-114.25s25.46,18.53,40.62,40.77Z" transform="translate(-149.07 -194.42)"/><path class="cls-2" d="M325.68,326.34l129.93-25.17s2.88,31.35-3.83,57.42Z" transform="translate(-149.07 -194.42)"/><path class="cls-2" d="M318.68,326.94l105.43,80S402.67,430,378.77,442.39Z" transform="translate(-149.07 -194.42)"/></g><g id="Hand_1"><path class="cls-3" d="M543.56,734l13.66,44.64c45.87,35.17,121.4,114.67,121.4,114.67-12.31,19.88-71.86,143.12-71.86,143.12l9.48,30c1.84-2.14,49.21-72,73.66-118.64,23.59-45,24.83-65.78,24.83-65.78C599.9,729.65,569.31,726.9,543.56,734" transform="translate(-149.07 -194.42)"/></g><g id="Hand_2"><path class="cls-3" d="M351.82,634.72S304.49,539,306.13,525.62c6.83-55.62,4.76-170.27,4.76-170.27s7,2.36,16.47-12.25-4.15-50-26.81-37.54S290,348.92,290,348.92L274.1,549.52s11.7,27.16,65.12,171.89Z" transform="translate(-149.07 -194.42)"/></g><g id="Hair_1"><path class="cls-2" d="M512.61,525.53c18.32.31,50.52,11.56,49.16,32.17S542.15,588,542.15,599.59s1.22,19.53,21.06,36.63,10.08,35.41,0,45.79S551,702.46,555,705.82s9.51,4.62,16.63,2.68,15,3.56,12.49,13.21c-1.53,5.82-8,14.67-34,16.81s-53.39,9.2-63.82-3.27C452,694.21,512.61,525.53,512.61,525.53Z" transform="translate(-149.07 -194.42)"/></g><g id="Neck"><path class="cls-3" d="M519.35,740.12c-15.74,0-25.23-12.63-23.33-50.37L497.51,669l-70,14.67v97.51l67.41,76.93,50.94-7.46,4.89-60-14.28-44.25Z" transform="translate(-149.07 -194.42)"/></g><g id="Dress"><path class="cls-1" d="M628.16,1344.19c-18.82-58.12-4.66-221.74-4.66-254S594.65,1000.33,590,970.47s30.53-69.11,27.85-101.78-70.89-129.87-70.89-129.87l-27.56,1.3c30.65,79.49,13.57,97.08,13.57,97.08-31.19,5.13-84.45-82.66-84.45-82.66l-86.66,53.94C418.55,899.15,465.54,916.69,461.34,990c-2.86,49.82-28.93,61.2-30.63,116-1.68,54.23,34.82,147.66,40.58,183.52,6.51,40.56,11.11,120.56-30.13,159-20.84,19.41-50.52,28.09-111.74,22s-94.57-80-95.78-122.46,9.54-52.09,22.27-61.79S297.18,1269,297.18,1269s-101.76-13.61-140.79,124.09c-30.57,107.88,44.42,161,44.42,161s8.27-30.52,16.13-25.55c12.42,7.84-24,166,169.64,169.78,0,0,14.54-25.3,18.91-24.43s24.12,57.73,118.9,50.62,120.85-41.47,130.92-48-7.4,49.79,76.49,30,101.44-34.32,113.26-91.9c0,0,1.14-8.38,7.92-3.38s7.42,20.5,16-10.81,22.93-103.1,2.42-138c0,0-95.7,56.58-157.72,10.69S640.07,1381,628.16,1344.19Z" transform="translate(-149.07 -194.42)"/></g><g id="Слой_13" data-name="Слой 13"><path class="cls-3" d="M507.07,549.7c17.4,6.8,20.91,36.65,19.5,62.33.8,4.41,10.25,19.84,15.92,28.73,0,0-7.75,8.81-11.88,11.52-3.64,2.4-5.14,26.47-6.93,31.23-3.62,9.62-15.61,8.91-57.2-4.84-58.18-19.24-40.9-61.33-40.9-61.33s31.54-64.49,56.61-66.67S507.07,549.7,507.07,549.7Z" transform="translate(-149.07 -194.42)"/></g><g id="Hair_new"><path class="cls-2" d="M477.31,629.35C477.31,641,446,652,463.46,663,498.11,685,487,700.72,477.1,712.5c-12.67,15.12-7,35,5.4,37.5s34.06,2.35,33.25,23.64C514.27,812,455.11,825.87,435,805.86s-35.84-8.85-48.53,5.63-41,16.09-52.32,7c-28.5-22.87,1.46-30.45,1.89-44.15.43-14-25.69-12-23.7-35.83,2.3-27.64,25.38-19.34,28-39.92,1.36-10.78-5.75-14.48-18.3-31.8-9.18-12.65-6-36.11,10.32-49,17-13.52,21.23-8.24,24-24.38,2.08-12.09-8.53-19.65.22-45.63,9-26.73,32.85-24,51.2-31.27,10.84-4.29,19.28-29.24,39.91-36,23.23-7.57,28.45,13.3,37.74,18.18,6.88,3.62,37.06-2.46,43.71,30.16,3.63,17.82-9.93,46.58-32.16,51.07-22,4.45-26.45,11.34-29.76,23C465.39,609.35,477.31,624,477.31,629.35Z" transform="translate(-149.07 -194.42)"/></g><g id="Flower"><path class="cls-1" d="M430,595.71c-10.1,4.33-11.2,11-12.88,15.86s.69,23,17.05,23.14,27.7-6.31,31.28-14.74c3.74-8.77-3.92-20.71-11.57-25.19C446.81,590.62,436.56,592.91,430,595.71Z" transform="translate(-149.07 -194.42)"/><path class="cls-1" d="M428.24,586.35c-8.27-3.3-17.86-14.09-32.12-6.62s-4.15,27.35.77,33.88c4.56,6.06,19.8,11.09,25.75,5C430.54,610.65,428.24,586.35,428.24,586.35Z" transform="translate(-149.07 -194.42)"/><path class="cls-1" d="M439.18,580.66c1.12-9.52,15.12-24.26,31.36-15.49s8.39,24.45,3.73,29.86-19.6,10.64-29.86,1.68S439.18,580.66,439.18,580.66Z" transform="translate(-149.07 -194.42)"/><path class="cls-1" d="M418.45,591.32c-15.15-5.79-24.6-28.85-16.16-40.82,7.53-10.66,30.75-17.28,42.94-9.15,13.72,9.15,14.95,29.39-.34,45.51C435.63,596.62,431.45,596.3,418.45,591.32Z" transform="translate(-149.07 -194.42)"/><path class="cls-1" d="M418.76,580c3.73-10.28,20.8-11.23,26.83-4.11s4.14,21.49-7.39,24.64c-9.81,2.68-15.4-.8-18.16-4.25C416.68,592.05,417,584.88,418.76,580Z" transform="translate(-149.07 -194.42)"/></g></svg>